<svg version="1" xmlns="http://www.w3.org/2000/svg" width="346.667" height="346.667" viewBox="0 0 260.000000 260.000000"><path d="M0 130v130h260V0H0v130zm147.9-59.5c9.5 2.3 17.3 6.9 24.5 14.6 7.6 8 10.5 14.8 11.3 25.9 1.2 16.8-6.6 31.3-20.4 38.4-1.8.9-3.3 2-3.3 2.5s6.5 13.4 14.5 28.7c8 15.3 14.5 28 14.5 28.1 0 .2-6.3.3-14 .3-12.9 0-14-.1-15-2-.6-1.1-1.6-2-2.3-2-.7 0-6.5-10.6-13-23.5L133 158h-18v51h-13c-12.3 0-13-.1-13-2 0-1.3-.7-2-2-2-2 0-2-.7-2-68V69h28.3c21.6 0 29.7.4 34.6 1.5z"/><path d="M115 113.6v19.7l11.3-.5c12.9-.6 18.2-2.4 22.6-7.3 3.9-4.5 5.6-12.3 4.1-19.3-2.3-10.3-6.2-12.2-25.4-12.2H115v19.6z"/></svg>